<svg width="30" height="30" viewBox="0 0 30 30" fill="none" xmlns="http://www.w3.org/2000/svg">
<path d="M26.0953 10.3813C26.0828 9.4346 25.9061 8.49729 25.5734 7.61132C25.2848 6.86401 24.844 6.18532 24.2792 5.61861C23.7144 5.0519 23.038 4.60963 22.2932 4.32007C21.4216 3.99176 20.5008 3.81424 19.57 3.79507C18.3715 3.74132 17.9916 3.72632 14.9494 3.72632C11.9072 3.72632 11.5173 3.72632 10.3275 3.79507C9.39714 3.81439 8.47675 3.9919 7.60552 4.32007C6.86062 4.60943 6.18411 5.05162 5.61929 5.61836C5.05447 6.18509 4.61377 6.86389 4.32539 7.61132C3.99754 8.48523 3.821 9.40896 3.80341 10.3426C3.74984 11.5463 3.73364 11.9276 3.73364 14.9801C3.73364 18.0326 3.73364 18.4226 3.80341 19.6176C3.82209 20.5526 3.99775 21.4751 4.32539 22.3513C4.61425 23.0985 5.05528 23.777 5.62029 24.3435C6.1853 24.91 6.86187 25.352 7.60676 25.6413C8.47561 25.9828 9.39616 26.173 10.3288 26.2038C11.5285 26.2576 11.9084 26.2738 14.9506 26.2738C17.9928 26.2738 18.3827 26.2738 19.5725 26.2038C20.5032 26.1854 21.4241 26.0083 22.2957 25.6801C23.0403 25.3902 23.7165 24.9478 24.2813 24.3811C24.846 23.8144 25.2869 23.1359 25.5758 22.3888C25.9035 21.5138 26.0791 20.5913 26.0978 19.6551C26.1514 18.4526 26.1676 18.0713 26.1676 15.0176C26.1651 11.9651 26.1651 11.5776 26.0953 10.3813ZM14.9419 20.7526C11.7602 20.7526 9.18267 18.1663 9.18267 14.9738C9.18267 11.7813 11.7602 9.19507 14.9419 9.19507C16.4693 9.19507 17.9342 9.8039 19.0143 10.8876C20.0944 11.9713 20.7011 13.4412 20.7011 14.9738C20.7011 16.5064 20.0944 17.9763 19.0143 19.06C17.9342 20.1437 16.4693 20.7526 14.9419 20.7526ZM20.9303 10.3288C20.7539 10.329 20.5792 10.2942 20.4162 10.2266C20.2532 10.1589 20.1051 10.0597 19.9804 9.93451C19.8556 9.80935 19.7567 9.66074 19.6893 9.49718C19.6219 9.33362 19.5872 9.15832 19.5874 8.98132C19.5874 8.80444 19.6221 8.6293 19.6896 8.46589C19.757 8.30248 19.8559 8.154 19.9806 8.02893C20.1052 7.90386 20.2532 7.80465 20.416 7.73697C20.5789 7.66928 20.7534 7.63444 20.9297 7.63444C21.106 7.63444 21.2806 7.66928 21.4434 7.73697C21.6063 7.80465 21.7542 7.90386 21.8789 8.02893C22.0035 8.154 22.1024 8.30248 22.1699 8.46589C22.2373 8.6293 22.272 8.80444 22.272 8.98132C22.272 9.72632 21.6716 10.3288 20.9303 10.3288Z" fill="black"/>
<path d="M14.9418 18.7275C17.0079 18.7275 18.6828 17.0469 18.6828 14.9737C18.6828 12.9006 17.0079 11.22 14.9418 11.22C12.8756 11.22 11.2007 12.9006 11.2007 14.9737C11.2007 17.0469 12.8756 18.7275 14.9418 18.7275Z" fill="black"/>
</svg>