<svg width="264" height="53" viewBox="0 0 264 53" fill="none" xmlns="http://www.w3.org/2000/svg">
<path d="M23.5999 36.2001C23.5999 36.6001 23.6999 36.8001 23.9999 37.1001L26.3999 39.4001V39.5001H14.3999V39.4001L16.7999 37.1001C16.9999 36.9001 17.0999 36.6001 17.0999 36.2001V17.3001C17.0999 16.9001 16.9999 16.7001 16.7999 16.4001L14.3999 14.1001V14.0001H26.3999V14.1001L23.9999 16.4001C23.7999 16.6001 23.5999 16.9001 23.5999 17.3001V36.2001ZM46.9999 28.9001C46.9999 29.8001 46.9999 31.2001 46.8999 33.2001C46.8999 35.2001 46.8999 36.4001 46.8999 36.8001C46.8999 37.2001 46.9999 37.4001 47.1999 37.7001L48.9999 39.4001V39.5001H38.8999V39.4001L40.5999 37.7001C40.7999 37.5001 40.8999 37.2001 40.8999 36.9001C40.8999 36.8001 40.8999 35.8001 40.8999 33.8001C40.8999 31.8001 40.9999 30.4001 40.9999 29.8001C40.9999 28.0001 40.7999 26.6001 40.3999 25.7001C39.9999 24.8001 39.2999 24.3001 38.1999 24.3001C37.0999 24.3001 36.2999 24.8001 35.4999 25.9001V36.8001C35.4999 37.2001 35.5999 37.5001 35.7999 37.7001L37.5999 39.4001V39.5001H27.4999V39.4001L29.2999 37.7001C29.4999 37.5001 29.5999 37.2001 29.5999 36.8001V24.3001C29.5999 23.9001 29.4999 23.6001 29.2999 23.4001L27.4999 21.6001H35.4999V25.4001C36.4999 22.7001 38.3999 21.3001 41.1999 21.3001C42.9999 21.3001 44.3999 21.9001 45.2999 23.2001C46.4999 24.5001 46.9999 26.4001 46.9999 28.9001ZM68.1999 13.1001V36.6001C68.1999 37.0001 68.2999 37.3001 68.4999 37.5001L70.2999 39.3001V39.4001H62.2999V36.0001C61.1999 38.4001 59.4999 39.7001 56.9999 39.7001C54.8999 39.7001 53.1999 38.9001 51.8999 37.3001C50.5999 35.7001 49.9999 33.4001 49.9999 30.6001C49.9999 27.8001 50.6999 25.6001 52.1999 23.9001C53.6999 22.2001 55.4999 21.3001 57.7999 21.3001C59.9999 21.3001 61.5999 22.3001 62.3999 24.2001V16.7001C62.3999 16.3001 62.2999 16.0001 61.9999 15.8001L60.2999 14.1001V14.0001L68.1999 13.1001ZM59.7999 37.0001C60.7999 37.0001 61.5999 36.5001 62.2999 35.6001V24.5001C61.6999 23.8001 60.8999 23.4001 59.9999 23.4001C58.8999 23.4001 57.9999 24.0001 57.2999 25.1001C56.5999 26.2001 56.1999 28.0001 56.1999 30.4001C56.1999 32.7001 56.4999 34.4001 57.1999 35.4001C57.7999 36.4001 58.6999 37.0001 59.7999 37.0001ZM76.1999 19.6001C75.3999 19.6001 74.6999 19.4001 74.0999 18.9001C73.4999 18.4001 73.2999 17.7001 73.2999 17.0001C73.2999 16.2001 73.5999 15.5001 74.0999 15.0001C74.6999 14.5001 75.3999 14.2001 76.1999 14.2001C76.9999 14.2001 77.6999 14.5001 78.2999 15.0001C78.8999 15.5001 79.0999 16.2001 79.0999 17.0001C79.0999 17.8001 78.7999 18.4001 78.2999 18.9001C77.7999 19.3001 77.0999 19.6001 76.1999 19.6001ZM71.2999 21.6001H79.2999V36.8001C79.2999 37.2001 79.3999 37.5001 79.5999 37.7001L81.3999 39.4001V39.5001H71.2999V39.4001L73.0999 37.7001C73.2999 37.5001 73.3999 37.2001 73.3999 36.8001V24.3001C73.3999 23.9001 73.2999 23.6001 73.0999 23.4001L71.2999 21.6001ZM98.0999 28.5001C98.0999 28.6001 98.0999 28.9001 98.0999 29.3001C98.0999 29.6001 98.0999 29.8001 98.0999 29.8001L97.8999 34.9001C97.7999 36.3001 98.1999 37.0001 98.8999 37.0001C99.3999 37.0001 99.6999 36.8001 99.8999 36.4001H99.9999C99.9999 36.9001 99.8999 37.3001 99.6999 37.7001C99.0999 39.0001 97.8999 39.7001 96.1999 39.7001C95.0999 39.7001 94.1999 39.4001 93.4999 38.8001C92.7999 38.2001 92.3999 37.3001 92.2999 36.2001C91.8999 37.3001 91.2999 38.1001 90.3999 38.8001C89.4999 39.4001 88.4999 39.7001 87.3999 39.7001C85.9999 39.7001 84.7999 39.3001 83.8999 38.4001C82.9999 37.5001 82.4999 36.2001 82.4999 34.7001C82.4999 33.0001 83.0999 31.7001 84.2999 30.7001C85.4999 29.7001 86.8999 29.2001 88.4999 29.2001C90.0999 29.2001 91.3999 29.5001 92.2999 30.2001L92.3999 26.3001V26.1001C92.3999 23.3001 91.4999 22.0001 89.7999 22.0001C89.3999 22.0001 89.1999 22.0001 89.0999 22.1001C88.9999 22.1001 88.8999 22.3001 88.7999 22.5001L85.8999 27.9001H85.7999L83.4999 22.8001C85.9999 21.9001 88.4999 21.4001 90.7999 21.4001C93.2999 21.4001 95.1999 22.0001 96.3999 23.1001C97.4999 24.1001 98.0999 25.9001 98.0999 28.5001ZM90.8999 30.3001C89.9999 30.3001 89.2999 30.6001 88.6999 31.3001C88.1999 32.0001 87.8999 32.9001 87.8999 34.0001C87.8999 35.0001 88.0999 35.7001 88.4999 36.3001C88.8999 36.8001 89.3999 37.1001 89.9999 37.1001C90.7999 37.1001 91.4999 36.7001 92.0999 35.8001L92.1999 30.5001C91.7999 30.3001 91.3999 30.3001 90.8999 30.3001ZM120.2 28.9001C120.2 29.8001 120.2 31.2001 120.1 33.2001C120.1 35.2001 120.1 36.4001 120.1 36.8001C120.1 37.2001 120.2 37.4001 120.4 37.7001L122.2 39.4001V39.5001H112.1V39.4001L113.8 37.7001C114 37.5001 114.1 37.2001 114.1 36.9001C114.1 36.8001 114.1 35.8001 114.1 33.8001C114.1 31.8001 114.2 30.4001 114.2 29.8001C114.2 28.0001 114 26.6001 113.6 25.7001C113.2 24.8001 112.5 24.3001 111.4 24.3001C110.3 24.3001 109.5 24.8001 108.7 25.9001V36.8001C108.7 37.2001 108.8 37.5001 109 37.7001L110.8 39.4001V39.5001H100.7V39.4001L102.5 37.7001C102.7 37.5001 102.8 37.2001 102.8 36.8001V24.3001C102.8 23.9001 102.7 23.6001 102.5 23.4001L100.7 21.6001H108.7V25.4001C109.7 22.7001 111.6 21.3001 114.4 21.3001C116.2 21.3001 117.6 21.9001 118.5 23.2001C119.7 24.5001 120.2 26.4001 120.2 28.9001ZM138.1 16.6001C137.9 16.9001 137.9 17.2001 138 17.5001L143.7 35.4001L148.5 20.1001C148.6 19.8001 148.6 19.6001 148.6 19.5001C148.6 19.4001 148.5 19.2001 148.2 18.9001L145 14.3001V14.2001H153.5V14.3001L150.1 18.9001C149.7 19.4001 149.4 19.9001 149.3 20.4001L143.4 39.5001H138.4L131.6 18.2001C131.4 17.7001 131.2 17.2001 130.9 16.7001L129.4 14.3001V14.2001H140.1V14.3001L138.1 16.6001ZM166.2 28.5001C166.2 28.6001 166.2 28.9001 166.2 29.3001C166.2 29.6001 166.2 29.8001 166.2 29.8001L166 34.9001C165.9 36.3001 166.3 37.0001 167 37.0001C167.5 37.0001 167.8 36.8001 168 36.4001H168.1C168.1 36.9001 168 37.3001 167.8 37.7001C167.2 39.0001 166 39.7001 164.3 39.7001C163.2 39.7001 162.3 39.4001 161.6 38.8001C160.9 38.2001 160.5 37.3001 160.4 36.2001C160 37.3001 159.4 38.1001 158.5 38.8001C157.6 39.4001 156.6 39.7001 155.5 39.7001C154.1 39.7001 152.9 39.3001 152 38.4001C151.1 37.5001 150.6 36.2001 150.6 34.7001C150.6 33.0001 151.2 31.7001 152.4 30.7001C153.6 29.7001 155 29.2001 156.6 29.2001C158.2 29.2001 159.5 29.5001 160.4 30.2001L160.5 26.3001V26.1001C160.5 23.3001 159.6 22.0001 157.9 22.0001C157.5 22.0001 157.3 22.0001 157.2 22.1001C157.1 22.1001 157 22.3001 156.9 22.5001L154 27.9001H153.9L151.6 22.8001C154.1 21.9001 156.6 21.4001 158.9 21.4001C161.4 21.4001 163.3 22.0001 164.5 23.1001C165.6 24.1001 166.2 25.9001 166.2 28.5001ZM159 30.3001C158.1 30.3001 157.4 30.6001 156.8 31.3001C156.3 32.0001 156 32.9001 156 34.0001C156 35.0001 156.2 35.7001 156.6 36.3001C157 36.8001 157.5 37.1001 158.1 37.1001C158.9 37.1001 159.6 36.7001 160.2 35.8001L160.3 30.5001C159.9 30.3001 159.4 30.3001 159 30.3001ZM176.5 13.1001V36.8001C176.5 37.2001 176.6 37.4001 176.9 37.7001L178.7 39.4001V39.5001H168.6V39.4001L170.4 37.7001C170.6 37.5001 170.7 37.2001 170.7 36.8001V16.7001C170.7 16.3001 170.6 16.0001 170.4 15.8001L168.6 14.1001V14.0001L176.5 13.1001ZM197.9 21.6001V36.6001C197.9 37.0001 198 37.3001 198.2 37.5001L200 39.3001V39.4001H192V35.5001C191.5 36.8001 190.8 37.8001 189.9 38.5001C188.9 39.2001 187.8 39.6001 186.5 39.6001C184.7 39.6001 183.4 39.0001 182.4 37.7001C181.4 36.4001 181 34.6001 181 32.1001C181 30.7001 181 28.1001 181.1 24.2001C181.1 23.8001 181 23.6001 180.8 23.3001L179 21.6001H187V26.4001C187 29.6001 187 31.2001 187 31.4001C187 33.2001 187.2 34.5001 187.5 35.4001C187.8 36.3001 188.5 36.8001 189.4 36.8001C190.4 36.8001 191.2 36.3001 192 35.2001V24.4001C192 24.0001 191.9 23.7001 191.7 23.5001L189.9 21.7001V21.6001H197.9ZM217.7 29.7001H206.9V29.8001C206.9 32.0001 207.4 33.7001 208.3 34.8001C209.3 35.9001 210.5 36.4001 212 36.4001C214.5 36.4001 216.4 35.3001 217.5 33.1001H217.6C216.7 37.5001 214 39.8001 209.6 39.8001C207.1 39.8001 205 39.0001 203.3 37.5001C201.6 36.0001 200.7 33.7001 200.7 30.7001C200.7 27.6001 201.6 25.2001 203.3 23.7001C205 22.2001 207.2 21.4001 209.8 21.4001C210.8 21.4001 211.8 21.5001 212.6 21.8001C213.5 22.1001 214.3 22.5001 215.1 23.0001C215.9 23.6001 216.5 24.3001 217 25.4001C217.5 26.4001 217.7 27.6001 217.7 29.0001C217.7 29.1001 217.7 29.4001 217.7 29.7001ZM209.7 22.0001C208.8 22.0001 208.1 22.6001 207.6 23.7001C207.1 24.8001 206.9 26.6001 206.8 29.1001H212.1C212.1 28.8001 212.1 28.4001 212.1 28.0001C212.1 25.8001 211.9 24.2001 211.5 23.4001C211.1 22.4001 210.5 22.0001 209.7 22.0001ZM234 22.5001L232 28.2001H231.9L229.1 24.8001C228.9 24.5001 228.7 24.5001 228.5 24.6001C228 24.9001 227.5 25.6001 227 26.7001V36.4001C227 36.8001 227.2 37.1001 227.5 37.3001L231 39.4001V39.5001H218.9V39.4001L220.7 37.7001C220.9 37.5001 221 37.2001 221 36.8001V24.3001C221 23.9001 220.9 23.6001 220.7 23.4001L218.9 21.6001H226.9V26.2001C227.2 24.8001 227.8 23.6001 228.6 22.7001C229.4 21.8001 230.4 21.3001 231.6 21.3001C232.5 21.3001 233.4 21.7001 234 22.5001ZM244.3 36.4001C244.3 35.7001 244 35.2001 243.5 34.7001C243 34.3001 242.1 33.8001 240.8 33.2001L238.4 32.0001C236.1 30.9001 234.9 29.2001 234.9 26.9001C234.9 25.2001 235.6 23.8001 236.9 22.8001C238.2 21.8001 240 21.3001 242.3 21.3001C244.4 21.3001 246.5 21.6001 248.6 22.3001L246.6 27.5001H246.5L243.7 22.5001C243.5 22.1001 243.2 22.0001 242.9 22.0001H242.4C241.6 22.0001 240.9 22.2001 240.3 22.6001C239.7 23.0001 239.5 23.7001 239.5 24.5001C239.5 25.2001 239.8 25.8001 240.3 26.3001C240.8 26.8001 241.7 27.2001 242.9 27.8001L245.2 28.8001C246.5 29.4001 247.5 30.0001 248.2 30.7001C248.9 31.4001 249.2 32.5001 249.2 33.7001C249.2 35.6001 248.5 37.1001 247 38.1001C245.5 39.1001 243.6 39.6001 241.1 39.6001C238.8 39.6001 236.6 39.2001 234.5 38.5001L236.5 32.9001H236.6L239.5 38.5001C239.6 38.8001 239.9 39.0001 240.3 39.0001H241.1C242.1 39.0001 242.9 38.8001 243.5 38.3001C244 37.8001 244.3 37.2001 244.3 36.4001Z" fill="black"/>
<path d="M133.6 49.8H3V11.8L0 8.8V52.8H136.6L133.6 49.8ZM239.7 0L242.7 3H260.4V20.7L263.4 23.7V0H239.7Z" fill="black"/>
</svg>