<svg width="30" height="30" viewBox="0 0 30 30" fill="none" xmlns="http://www.w3.org/2000/svg">
<path d="M12.4577 22.5C14.6689 22.4995 16.8164 21.7568 18.5582 20.39L24.0347 25.885L25.7962 24.1175L20.3198 18.6225C21.6826 16.8746 22.4233 14.7193 22.4239 12.5C22.4239 6.98625 17.9528 2.5 12.4577 2.5C6.96255 2.5 2.49146 6.98625 2.49146 12.5C2.49146 18.0137 6.96255 22.5 12.4577 22.5ZM12.4577 5C16.5799 5 19.9323 8.36375 19.9323 12.5C19.9323 16.6362 16.5799 20 12.4577 20C8.33539 20 4.98301 16.6362 4.98301 12.5C4.98301 8.36375 8.33539 5 12.4577 5Z" fill="black"/>
</svg>