<svg width="30" height="30" viewBox="0 0 30 30" fill="none" xmlns="http://www.w3.org/2000/svg">
<path d="M24.4582 9.99618C24.4744 10.2149 24.4744 10.4324 24.4744 10.6499C24.4744 17.3062 19.4253 24.9762 10.1978 24.9762C7.35497 24.9762 4.71392 24.1499 2.49146 22.7149C2.89509 22.7612 3.28377 22.7774 3.7036 22.7774C5.96218 22.7829 8.15681 22.0251 9.93373 20.6262C8.88655 20.6072 7.87144 20.2605 7.03012 19.6346C6.1888 19.0087 5.56327 18.1348 5.24088 17.1349C5.55108 17.1812 5.86253 17.2124 6.18892 17.2124C6.63865 17.2124 7.09086 17.1499 7.51069 17.0412C6.37424 16.811 5.35235 16.1929 4.61877 15.292C3.88519 14.3912 3.4852 13.2632 3.48683 12.0999V12.0374C4.15581 12.4112 4.93193 12.6449 5.75415 12.6762C5.06534 12.2169 4.50054 11.5937 4.11014 10.8622C3.71974 10.1306 3.51587 9.3135 3.51673 8.48368C3.51673 7.54868 3.76464 6.69118 4.19942 5.94368C5.46031 7.49996 7.03294 8.77314 8.81544 9.68076C10.5979 10.5884 12.5506 11.1102 14.5468 11.2124C14.4696 10.8374 14.4223 10.4487 14.4223 10.0587C14.4219 9.39739 14.5515 8.74251 14.8036 8.13148C15.0556 7.52046 15.4252 6.96528 15.8913 6.49767C16.3573 6.03006 16.9106 5.6592 17.5196 5.40628C18.1285 5.15336 18.7812 5.02335 19.4403 5.02368C20.8854 5.02368 22.1897 5.63118 23.1066 6.61368C24.23 6.3957 25.3073 5.98421 26.2908 5.39743C25.9163 6.56095 25.1319 7.54756 24.0845 8.17243C25.0809 8.05841 26.0546 7.7955 26.9735 7.39243C26.2872 8.39631 25.4368 9.27661 24.4582 9.99618V9.99618Z" fill="black"/>
</svg>